<?xml version="1.0" encoding="utf-8" ?>
<svg xmlns="http://www.w3.org/2000/svg" xmlns:xlink="http://www.w3.org/1999/xlink" width="456" height="455">
	<path fill="#E6E5E0" transform="scale(0.7125 0.7125)" d="M147.831 134.415C149.806 133.85 152.009 133.892 154.057 133.84L164.099 133.766C168.805 133.768 174.01 133.362 178.643 134.074C198.306 137.096 205.089 174.81 167.508 170.183L167.917 199.126C175.764 198.966 183.498 198.014 189.628 203.977C195.812 209.992 196.164 218.849 193.54 226.566C186.019 236.581 179.479 235.149 167.601 234.697L167.817 259.553C167.819 263.991 167.324 269.389 168.282 273.685C168.959 279.21 168.725 284.903 168.739 290.462L168.941 301.094C168.901 303.948 168.464 306.787 168.481 309.646L168.691 325.258C168.666 326.718 168.471 328.301 168.703 329.741L168.776 341.4C177.045 341.615 184.76 341.922 190.855 348.281L194.489 352.771C198.144 361.84 195.451 372.752 185.781 376.566C180.476 378.659 173.993 378.085 168.414 377.789L168.756 403.145C175.855 402.77 184.044 402.985 189.69 407.969C197.301 414.687 196.128 428.677 189.677 435.781C185.593 440.279 179.861 440.47 174.219 440.613L168.61 440.625L168.764 457.872C168.775 460.496 168.363 465.02 169.336 467.385C170.508 470.488 170.364 474.452 170.47 477.761L170.33 504.035L154.309 504.108L147.74 503.664L147.711 513.357C147.195 512.697 147.402 511.684 147.4 510.853L147.575 501.64L138.906 500.449C130.875 499.677 121.076 499.043 118.149 489.765L117.67 487.977C116.397 480.505 120.011 471.263 128.29 470.055L128.906 469.969C134.768 469.111 140.876 469.754 146.794 469.09C147.612 465.151 147.272 460.708 147.277 456.7L147.026 435.958L136.634 435.439C131.862 435.226 126.533 435.453 122.483 432.523C113.212 425.818 117.029 407.812 128.686 406.55L147.12 405.967L147.194 373.503L135.17 372.896C132.537 372.743 129.395 372.77 126.872 371.98C114.762 368.187 110.926 345.024 134.365 344.408L147.043 344.552C148.141 341.37 147.28 336.489 147.271 333.115L146.871 303.74C140.104 303.627 131.973 304.314 125.552 302.202C114.766 298.653 114.157 280.753 124.391 276.225L124.697 276.094C128.118 274.562 131.661 274.683 135.326 274.677L146.538 274.689L147.254 265.938C147.596 255.756 147.885 241.924 146.861 232.253L132.852 231.846C130.121 231.703 126.858 231.685 124.36 230.49L122.812 229.708C115.586 225.752 116.166 215.829 119.3 209.36L119.482 208.953C122.662 202.979 131.624 202.67 137.462 202.682L147.189 202.47L147.448 167.449C140.897 166.899 132.092 168.515 125.996 165.585L125.469 165.314C116.865 160.958 115.585 151.272 120.406 143.182L120.64 142.777C126.967 133.249 145.033 139.531 147.831 134.415Z"/>
	<path fill="#203590" transform="scale(0.7125 0.7125)" d="M147.831 134.415L147.622 131.25C146.915 109.577 153.683 88.3127 178.461 84.0702C182.492 83.3801 186.921 83.4276 191.008 83.4239L427.915 83.3652L457.504 83.4286C473.52 83.4397 484.888 82.6508 497.184 95.1499L500.915 99.5762C511.309 113.496 508.579 131.482 508.582 147.777L508.576 504.139C508.575 509.805 509.016 515.916 508.191 521.519C505.685 538.551 494.088 553.024 476.623 555.826C472.575 556.476 468.273 556.242 464.185 556.248L449.237 556.175L192.149 556.26C188.083 556.32 183.909 556.605 179.875 555.991C165.735 553.84 151.866 541.558 148.889 527.372C147.928 522.793 147.792 518.017 147.711 513.357L147.74 503.664L154.309 504.108L170.33 504.035L170.47 477.761C170.364 474.452 170.508 470.488 169.336 467.385C168.363 465.02 168.775 460.496 168.764 457.872L168.61 440.625L174.219 440.613C179.861 440.47 185.593 440.279 189.677 435.781C196.128 428.677 197.301 414.687 189.69 407.969C184.044 402.985 175.855 402.77 168.756 403.145L168.414 377.789C173.993 378.085 180.476 378.659 185.781 376.566C195.451 372.752 198.144 361.84 194.489 352.771L190.855 348.281C184.76 341.922 177.045 341.615 168.776 341.4L168.703 329.741C168.471 328.301 168.666 326.718 168.691 325.258L168.481 309.646C168.464 306.787 168.901 303.948 168.941 301.094L168.739 290.462C168.725 284.903 168.959 279.21 168.282 273.685C167.324 269.389 167.819 263.991 167.817 259.553L167.601 234.697C179.479 235.149 186.019 236.581 193.54 226.566C196.164 218.849 195.812 209.992 189.628 203.977C183.498 198.014 175.764 198.966 167.917 199.126L167.508 170.183C205.089 174.81 198.306 137.096 178.643 134.074C174.01 133.362 168.805 133.768 164.099 133.766L154.057 133.84C152.009 133.892 149.806 133.85 147.831 134.415ZM427.915 83.3652C427.698 84.3211 427.458 84.6174 427.934 85.5014C449.712 96.7324 453.073 107.812 453.81 132.973L453.966 193.786L376.569 193.574C376.656 182.528 377.342 171.749 372.589 161.452C369.359 154.453 364.105 146.292 356.548 143.536L356.224 143.97C354.999 145.527 353.029 146.499 351.671 147.969C349.849 149.941 348.377 152.495 346.926 154.752C337.755 169.009 339.084 174.4 339.088 191.315L339.739 261.671C339.941 270.686 339.765 279.702 340.487 288.706L342.672 311.239C343.692 319.815 346.455 337.969 345.532 346.301L351.562 344.066C354.097 343.203 355.132 344.212 357.511 345.295L387.746 358.705C391.075 360.111 394.576 361.969 398.024 362.993L402.074 364.769C404.224 365.389 406.327 366.245 408.534 366.611C412.449 370.43 437.976 366.693 446.033 370.832L446.402 371.019C452.756 374.338 453.46 380.066 453.792 386.36L453.982 502.309C454.008 521.194 454.883 539.62 437.561 551.096C424.635 559.659 445.162 554.974 449.237 556.175L464.185 556.248C468.273 556.242 472.575 556.476 476.623 555.826C494.088 553.024 505.685 538.551 508.191 521.519C509.016 515.916 508.575 509.805 508.576 504.139L508.582 147.777C508.579 131.482 511.309 113.496 500.915 99.5762L497.184 95.1499C484.888 82.6508 473.52 83.4397 457.504 83.4286L427.915 83.3652Z"/>
	<path fill="#96B8DB" transform="scale(0.7125 0.7125)" d="M169.336 467.385C211.176 463.751 203.196 503.086 182.588 504.101L164.358 504.311C161.095 504.312 157.53 504.592 154.309 504.108L170.33 504.035L170.47 477.761C170.364 474.452 170.508 470.488 169.336 467.385Z"/>
	<defs>
		<linearGradient id="gradient_0" gradientUnits="userSpaceOnUse" x1="352.41345" y1="344.07309" x2="353.00208" y2="366.2554">
			<stop offset="0" stop-color="#210047"/>
			<stop offset="1" stop-color="#241685"/>
		</linearGradient>
	</defs>
	<path fill="url(#gradient_0)" transform="scale(0.7125 0.7125)" d="M345.532 346.301L351.562 344.066C354.097 343.203 355.132 344.212 357.511 345.295L387.746 358.705C391.075 360.111 394.576 361.969 398.024 362.993L402.074 364.769C400.515 366.552 396.21 365.332 394.062 365.299L381.236 365.513C378.57 365.575 375.902 365.286 373.233 365.283L314.226 365.318C311.129 365.415 306.389 367.485 304.513 364.385L345.532 346.301Z"/>
	<path fill="#6083C5" transform="scale(0.7125 0.7125)" d="M193.54 226.566L193.941 226.581C199.116 226.691 204.837 225.042 210.031 224.401C224.14 222.66 222.781 229.517 222.645 240.006L218.967 308.802L218.845 331.022C218.862 335.494 219.478 340.766 218.241 345.063L218.138 345.44C216.771 350.153 211.23 351.99 206.875 352.541L206.264 352.623C202.34 353.125 198.395 352.514 194.489 352.771L190.855 348.281C184.76 341.922 177.045 341.615 168.776 341.4L168.703 329.741C168.471 328.301 168.666 326.718 168.691 325.258L168.481 309.646C168.464 306.787 168.901 303.948 168.941 301.094L168.739 290.462C168.725 284.903 168.959 279.21 168.282 273.685C167.324 269.389 167.819 263.991 167.817 259.553L167.601 234.697C179.479 235.149 186.019 236.581 193.54 226.566Z"/>
	<path fill="#96B8DB" transform="scale(0.7125 0.7125)" d="M168.282 273.685C179.149 272.532 192.38 272.429 198.148 283.438L198.369 283.853C204.127 294.956 196.816 313.692 184.062 315.964L183.608 316.048C180.461 316.575 176.74 316.539 173.798 315.235L173.47 315.096C170.92 313.998 170.008 312.241 169.041 309.751L168.703 329.741C168.471 328.301 168.666 326.718 168.691 325.258L168.481 309.646C168.464 306.787 168.901 303.948 168.941 301.094L168.739 290.462C168.725 284.903 168.959 279.21 168.282 273.685Z"/>
	<path fill="white" transform="scale(0.7125 0.7125)" d="M257.916 309.318L251.319 311.383L251.089 278.813C252.317 277.319 254.854 276.034 256.476 274.902L327.779 224.22C329.024 223.373 330.288 222.71 331.682 222.142L332.193 189.881C332.2 183.362 331.944 176.699 333.412 170.312C335.66 160.529 344.324 142.773 356.548 143.536L356.224 143.97C354.999 145.527 353.029 146.499 351.671 147.969C349.849 149.941 348.377 152.495 346.926 154.752C337.755 169.009 339.084 174.4 339.088 191.315L339.739 261.671C339.941 270.686 339.765 279.702 340.487 288.706L342.672 311.239C343.692 319.815 346.455 337.969 345.532 346.301L304.513 364.385C302.339 365.255 300.122 366.13 297.815 366.57C295.38 367.485 292.492 367.594 289.917 367.907L270.219 369.717L269.21 344.263C268.774 335.758 268.41 322.197 263.017 315.027C261.501 313.012 258.76 311.698 257.916 309.318Z"/>
	<path fill="#230462" transform="scale(0.7125 0.7125)" d="M257.916 309.318L334.97 282.487L337.879 326.192C337.947 328.223 338.316 330.753 337.942 332.74L297.426 357.51L297.815 366.57C295.38 367.485 292.492 367.594 289.917 367.907L270.219 369.717L269.21 344.263C268.774 335.758 268.41 322.197 263.017 315.027C261.501 313.012 258.76 311.698 257.916 309.318Z"/>
	<path fill="#230462" transform="scale(0.7125 0.7125)" d="M427.915 83.3652L457.504 83.4286C473.52 83.4397 484.888 82.6508 497.184 95.1499L500.915 99.5762C511.309 113.496 508.579 131.482 508.582 147.777L508.576 504.139C508.575 509.805 509.016 515.916 508.191 521.519C505.685 538.551 494.088 553.024 476.623 555.826C472.575 556.476 468.273 556.242 464.185 556.248L449.237 556.175C445.162 554.974 424.635 559.659 437.561 551.096C454.883 539.62 454.008 521.194 453.982 502.309L453.792 386.36C453.46 380.066 452.756 374.338 446.402 371.019L446.033 370.832C437.976 366.693 412.449 370.43 408.534 366.611C406.327 366.245 404.224 365.389 402.074 364.769L398.024 362.993C394.576 361.969 391.075 360.111 387.746 358.705L357.511 345.295C355.132 344.212 354.097 343.203 351.562 344.066L345.532 346.301C346.455 337.969 343.692 319.815 342.672 311.239L340.487 288.706C339.765 279.702 339.941 270.686 339.739 261.671L339.088 191.315C339.084 174.4 337.755 169.009 346.926 154.752C348.377 152.495 349.849 149.941 351.671 147.969C353.029 146.499 354.999 145.527 356.224 143.97L356.548 143.536C364.105 146.292 369.359 154.453 372.589 161.452C377.342 171.749 376.656 182.528 376.569 193.574L453.966 193.786L453.81 132.973C453.073 107.812 449.712 96.7324 427.934 85.5014C427.458 84.6174 427.698 84.3211 427.915 83.3652ZM356.548 143.536L356.224 143.97C354.999 145.527 353.029 146.499 351.671 147.969C349.849 149.941 348.377 152.495 346.926 154.752C337.755 169.009 339.084 174.4 339.088 191.315L339.739 261.671C339.941 270.686 339.765 279.702 340.487 288.706L342.672 311.239C343.692 319.815 346.455 337.969 345.532 346.301L351.562 344.066C354.097 343.203 355.132 344.212 357.511 345.295L387.746 358.705C391.075 360.111 394.576 361.969 398.024 362.993L402.074 364.769C404.224 365.389 406.327 366.245 408.534 366.611L409.733 359.645C408.447 358.14 407.018 356.8 405.334 355.754C394.469 346.956 379.789 340.211 367.842 331.028C367.681 328.947 368.219 326.604 368.374 324.502L372.033 275.871C372.095 277.986 372.265 280.137 371.808 282.219L371.727 282.552C373.631 284.71 405.763 294.525 411.501 296.457L457.389 311.88L458.093 279.521C448.349 270.494 436.446 263.325 425.453 255.924L395.935 235.294C389.418 230.749 382.314 226.587 376.585 221.054L376.569 193.574C376.656 182.528 377.342 171.749 372.589 161.452C369.359 154.453 364.105 146.292 356.548 143.536Z"/>
	<path fill="#E6E5E0" transform="scale(0.7125 0.7125)" d="M356.548 143.536C364.105 146.292 369.359 154.453 372.589 161.452C377.342 171.749 376.656 182.528 376.569 193.574L376.585 221.054C382.314 226.587 389.418 230.749 395.935 235.294L425.453 255.924C436.446 263.325 448.349 270.494 458.093 279.521L457.389 311.88L411.501 296.457C405.763 294.525 373.631 284.71 371.727 282.552L371.808 282.219C372.265 280.137 372.095 277.986 372.033 275.871L368.374 324.502C368.219 326.604 367.681 328.947 367.842 331.028C379.789 340.211 394.469 346.956 405.334 355.754C407.018 356.8 408.447 358.14 409.733 359.645L408.534 366.611C406.327 366.245 404.224 365.389 402.074 364.769L398.024 362.993C394.576 361.969 391.075 360.111 387.746 358.705L357.511 345.295C355.132 344.212 354.097 343.203 351.562 344.066L345.532 346.301C346.455 337.969 343.692 319.815 342.672 311.239L340.487 288.706C339.765 279.702 339.941 270.686 339.739 261.671L339.088 191.315C339.084 174.4 337.755 169.009 346.926 154.752C348.377 152.495 349.849 149.941 351.671 147.969C353.029 146.499 354.999 145.527 356.224 143.97L356.548 143.536ZM398.024 362.993L402.074 364.769C404.224 365.389 406.327 366.245 408.534 366.611L409.733 359.645C408.447 358.14 407.018 356.8 405.334 355.754L404.908 355.643C404.026 355.406 403.258 355.303 402.634 354.586C404.029 360.436 400.974 358.143 398.909 361.25L398.438 361.409C397.922 361.606 397.451 361.822 396.989 362.121L398.024 362.993Z"/>
</svg>
