<svg width="24" height="24" viewBox="0 0 24 24" fill="none" xmlns="http://www.w3.org/2000/svg">
<g clip-path="url(#clip0_23_52)">
<path fill-rule="evenodd" clip-rule="evenodd" d="M17.25 10.5C17.25 10.9142 16.9142 11.25 16.5 11.25H10.5C10.0858 11.25 9.75 10.9142 9.75 10.5C9.75 10.0858 10.0858 9.75 10.5 9.75H16.5C16.9142 9.75 17.25 10.0858 17.25 10.5ZM16.5 12.75H10.5C10.0858 12.75 9.75 13.0858 9.75 13.5C9.75 13.9142 10.0858 14.25 10.5 14.25H16.5C16.9142 14.25 17.25 13.9142 17.25 13.5C17.25 13.0858 16.9142 12.75 16.5 12.75ZM21 4.5V19.5C21 20.3284 20.3284 21 19.5 21H4.5C3.67157 21 3 20.3284 3 19.5V4.5C3 3.67157 3.67157 3 4.5 3H19.5C20.3284 3 21 3.67157 21 4.5ZM4.5 19.5H6.75V4.5H4.5V19.5ZM19.5 19.5V4.5H8.25V19.5H19.5Z" fill="white"/>
</g>
<defs>
<clipPath id="clip0_23_52">
<rect width="24" height="24" fill="white"/>
</clipPath>
</defs>
</svg>
