<?xml version="1.0" encoding="utf-8" ?>
<svg xmlns="http://www.w3.org/2000/svg" xmlns:xlink="http://www.w3.org/1999/xlink" width="456" height="456">
	<path fill="white" transform="scale(0.445312 0.445312)" d="M0 -0L1024 0L1024 1024L-0 1024L0 -0Z"/>
	<path fill="white" transform="scale(0.445312 0.445312)" d="M255.419 589.558L78.6884 705.659L81.646 713L81.25 713.745C79.2984 710.616 78.1759 706.481 76.7298 703.03L63.9558 670.923C49.1792 629.45 39.8591 586.049 36.6449 542.099C35.8821 531.667 35.9267 520.901 35.9195 510.438C35.8939 472.921 39.8051 435.252 48.262 398.663C62.884 335.401 91.1753 273.967 129.648 221.641C136.739 211.997 144.542 202.91 152.343 193.843C184.518 156.446 221.844 123.906 263.765 97.7748C286.218 83.7793 310.761 71.9924 335.32 62.2269C424.525 26.7562 523.314 17.6308 617.049 39.5444C688.535 56.2562 756.934 88.8092 813.707 135.564C854.013 168.758 888.872 209.276 916.359 253.627C957.719 320.36 981.08 396.765 986.694 474.902C988.009 493.207 988.662 511.646 987.863 530C986.478 561.787 981.569 593.526 974.208 624.444C968.089 650.15 959.757 674.994 949.436 699.303C947.518 703.82 945.85 709.084 943.25 713.245L942.93 712.515C943.619 710.859 944.48 709.188 944.779 707.417L771.087 590.109C769.66 587.927 767.268 586.896 766.151 584.223L894.686 469.555L714.059 413.136L792.302 219.026L636.819 309.093L603.214 246.418L539.642 125.756L520.546 89.5L514.198 77.8046C513.49 76.6156 512.709 75.0149 511.633 74.1831L492.123 112.045L423.494 242L402.652 281.629L393.581 299.021C392.488 301.024 391.331 303.787 389.848 305.479L231.115 219.703L309.25 415.039L130.3 470.542L258.122 585.253L259.055 586.25C258.105 587.213 256.086 588.554 255.419 589.558Z"/>
</svg>
